<?xml version="1.0" encoding="UTF-8" standalone="no"?>
<!DOCTYPE svg PUBLIC "-//W3C//DTD SVG 1.1//EN" "http://www.w3.org/Graphics/SVG/1.1/DTD/svg11.dtd">
<svg width="100%" height="100%" viewBox="0 0 1041 1041" version="1.1" xmlns="http://www.w3.org/2000/svg" xmlns:xlink="http://www.w3.org/1999/xlink" xml:space="preserve" xmlns:serif="http://www.serif.com/" style="fill-rule:evenodd;clip-rule:evenodd;stroke-linecap:round;stroke-linejoin:round;stroke-miterlimit:1.5;">
    <g transform="matrix(1,0,0,1,-4699.73,-5072.66)">
        <g transform="matrix(0.267855,0,0,0.267855,4204.63,4153.13)">
            <path d="M5648.08,3969.81C5648.08,3720.72 5445.85,3518.49 5196.76,3518.49L2385.28,3518.49C2136.19,3518.49 1933.96,3720.72 1933.96,3969.81L1933.96,6781.29C1933.96,7030.38 2136.19,7232.6 2385.28,7232.6L5196.76,7232.6C5445.85,7232.6 5648.08,7030.38 5648.08,6781.29L5648.08,3969.81Z" style="fill:none;stroke:white;stroke-width:171.11px;"/>
        </g>
        <g transform="matrix(0.20298,0,0,0.20298,4455.79,4473.38)">
            <path d="M5648.08,4000.12C5648.08,3734.3 5432.27,3518.49 5166.44,3518.49L2415.6,3518.49C2149.78,3518.49 1933.96,3734.3 1933.96,4000.12L1933.96,6750.97C1933.96,7016.79 2149.78,7232.6 2415.6,7232.6L5166.44,7232.6C5432.27,7232.6 5648.08,7016.79 5648.08,6750.97L5648.08,4000.12Z" style="fill:none;stroke:white;stroke-width:184.75px;"/>
        </g>
        <g transform="matrix(7.45466,0,0,7.45466,-17436.7,-37560.5)">
            <g transform="matrix(58.052,0,0,58.052,3000.53,5791.38)">
                <path d="M0.744,-0.01L0.688,0.057L0.57,-0.036C0.517,-0.004 0.457,0.012 0.39,0.012C0.29,0.012 0.207,-0.022 0.143,-0.09C0.079,-0.157 0.047,-0.247 0.047,-0.358C0.047,-0.469 0.079,-0.559 0.143,-0.626C0.207,-0.694 0.29,-0.728 0.39,-0.728C0.49,-0.728 0.572,-0.694 0.636,-0.626C0.7,-0.559 0.732,-0.469 0.732,-0.358C0.732,-0.25 0.701,-0.161 0.639,-0.092L0.744,-0.01ZM0.568,-0.148C0.612,-0.2 0.634,-0.27 0.634,-0.358C0.634,-0.449 0.611,-0.52 0.565,-0.571C0.52,-0.622 0.462,-0.647 0.391,-0.647C0.319,-0.647 0.26,-0.622 0.214,-0.571C0.168,-0.52 0.145,-0.449 0.145,-0.358C0.145,-0.267 0.168,-0.196 0.214,-0.145C0.26,-0.094 0.318,-0.069 0.389,-0.069C0.427,-0.069 0.463,-0.077 0.497,-0.093L0.426,-0.149L0.482,-0.216L0.568,-0.148Z" style="fill:white;fill-rule:nonzero;"/>
            </g>
        </g>
    </g>
</svg>
