<?xml version="1.0" encoding="UTF-8" standalone="no"?>
<!DOCTYPE svg PUBLIC "-//W3C//DTD SVG 1.1//EN" "http://www.w3.org/Graphics/SVG/1.1/DTD/svg11.dtd">
<svg width="100%" height="100%" viewBox="0 0 1000 1000" version="1.1" xmlns="http://www.w3.org/2000/svg" xmlns:xlink="http://www.w3.org/1999/xlink" xml:space="preserve" xmlns:serif="http://www.serif.com/" style="fill-rule:evenodd;clip-rule:evenodd;stroke-linecap:round;stroke-linejoin:round;stroke-miterlimit:1.5;">
    <g transform="matrix(1,0,0,1,-2463.44,-5102.89)">
        <g transform="matrix(0.267855,0,0,0.267855,1947.5,4162.53)">
            <path d="M5648.08,3969.81C5648.08,3720.72 5445.85,3518.49 5196.76,3518.49L2385.28,3518.49C2136.19,3518.49 1933.96,3720.72 1933.96,3969.81L1933.96,6781.29C1933.96,7030.38 2136.19,7232.6 2385.28,7232.6L5196.76,7232.6C5445.85,7232.6 5648.08,7030.38 5648.08,6781.29L5648.08,3969.81Z" style="fill:url(#_Linear1);stroke:rgb(68,68,68);stroke-width:15.56px;"/>
        </g>
        <g transform="matrix(0.20298,0,0,0.20298,2187.38,4471.69)">
            <path d="M5648.08,4000.12C5648.08,3734.3 5432.27,3518.49 5166.44,3518.49L2415.6,3518.49C2149.78,3518.49 1933.96,3734.3 1933.96,4000.12L1933.96,6750.97C1933.96,7016.79 2149.78,7232.6 2415.6,7232.6L5166.44,7232.6C5432.27,7232.6 5648.08,7016.79 5648.08,6750.97L5648.08,4000.12Z" style="fill:url(#_Linear2);stroke:url(#_Linear3);stroke-width:30.79px;"/>
        </g>
        <g transform="matrix(3.94761,0,0,3.94761,-9150.44,-17417.1)">
            <g transform="matrix(58.052,0,0,58.052,3000.53,5791.38)">
                <path d="M0.744,-0.01L0.688,0.057L0.57,-0.036C0.517,-0.004 0.457,0.012 0.39,0.012C0.29,0.012 0.207,-0.022 0.143,-0.09C0.079,-0.157 0.047,-0.247 0.047,-0.358C0.047,-0.469 0.079,-0.559 0.143,-0.626C0.207,-0.694 0.29,-0.728 0.39,-0.728C0.49,-0.728 0.572,-0.694 0.636,-0.626C0.7,-0.559 0.732,-0.469 0.732,-0.358C0.732,-0.25 0.701,-0.161 0.639,-0.092L0.744,-0.01ZM0.568,-0.148C0.612,-0.2 0.634,-0.27 0.634,-0.358C0.634,-0.449 0.611,-0.52 0.565,-0.571C0.52,-0.622 0.462,-0.647 0.391,-0.647C0.319,-0.647 0.26,-0.622 0.214,-0.571C0.168,-0.52 0.145,-0.449 0.145,-0.358C0.145,-0.267 0.168,-0.196 0.214,-0.145C0.26,-0.094 0.318,-0.069 0.389,-0.069C0.427,-0.069 0.463,-0.077 0.497,-0.093L0.426,-0.149L0.482,-0.216L0.568,-0.148Z" style="fill:rgb(251,251,251);fill-rule:nonzero;"/>
            </g>
            <g transform="matrix(58.052,0,0,58.052,3046.27,5791.38)">
                <path d="M0.753,-0L0.663,-0L0.663,-0.609L0.459,-0L0.374,-0L0.17,-0.609L0.17,-0L0.08,-0L0.08,-0.716L0.222,-0.716L0.416,-0.119L0.611,-0.716L0.753,-0.716L0.753,-0Z" style="fill:rgb(251,251,251);fill-rule:nonzero;"/>
            </g>
            <g transform="matrix(58.052,0,0,58.052,3094.62,5791.38)">
                <path d="M0.665,-0L0.54,-0L0.286,-0.357L0.175,-0.248L0.175,-0L0.08,-0L0.08,-0.716L0.175,-0.716L0.175,-0.361L0.524,-0.716L0.652,-0.716L0.352,-0.422L0.665,-0Z" style="fill:rgb(251,251,251);fill-rule:nonzero;"/>
            </g>
            <g transform="matrix(44.3306,0,0,44.3306,3000.53,5841.25)">
                <path d="M0.523,-0L0.08,-0L0.08,-0.716L0.175,-0.716L0.175,-0.085L0.523,-0.085L0.523,-0Z" style="fill:rgb(251,251,251);fill-rule:nonzero;"/>
            </g>
            <g transform="matrix(44.3306,0,0,44.3306,3025.19,5841.25)">
                <path d="M0.396,-0.136L0.396,-0.251L0.333,-0.251C0.2,-0.251 0.133,-0.215 0.133,-0.142C0.133,-0.116 0.143,-0.095 0.162,-0.081C0.182,-0.067 0.208,-0.06 0.241,-0.06C0.271,-0.06 0.301,-0.067 0.329,-0.081C0.357,-0.094 0.38,-0.113 0.396,-0.136ZM0.396,-0.053C0.349,-0.01 0.289,0.012 0.215,0.012C0.163,0.012 0.121,-0.002 0.088,-0.03C0.055,-0.057 0.038,-0.093 0.038,-0.137C0.038,-0.258 0.142,-0.319 0.351,-0.319L0.396,-0.319C0.396,-0.356 0.394,-0.383 0.39,-0.4C0.386,-0.416 0.375,-0.43 0.357,-0.441C0.34,-0.452 0.311,-0.458 0.272,-0.458C0.19,-0.458 0.148,-0.429 0.145,-0.37L0.053,-0.37C0.06,-0.477 0.135,-0.53 0.277,-0.53C0.343,-0.53 0.395,-0.517 0.432,-0.49C0.469,-0.464 0.488,-0.412 0.488,-0.335L0.488,-0L0.396,-0L0.396,-0.053Z" style="fill:rgb(251,251,251);fill-rule:nonzero;"/>
            </g>
            <g transform="matrix(44.3306,0,0,44.3306,3049.84,5841.25)">
                <path d="M0.097,0.125C0.143,0.125 0.18,0.083 0.209,-0L0.013,-0.518L0.113,-0.518L0.25,-0.113L0.387,-0.518L0.487,-0.518L0.291,-0C0.272,0.049 0.256,0.088 0.243,0.115C0.23,0.141 0.212,0.164 0.191,0.182C0.17,0.201 0.144,0.21 0.113,0.21C0.09,0.21 0.07,0.208 0.053,0.203L0.053,0.118C0.068,0.123 0.082,0.125 0.097,0.125Z" style="fill:rgb(251,251,251);fill-rule:nonzero;"/>
            </g>
            <g transform="matrix(44.3306,0,0,44.3306,3072.01,5841.25)">
                <path d="M0.278,-0.53C0.352,-0.53 0.411,-0.506 0.455,-0.459C0.499,-0.412 0.521,-0.345 0.521,-0.259C0.521,-0.173 0.499,-0.106 0.455,-0.059C0.411,-0.011 0.352,0.012 0.278,0.012C0.204,0.012 0.145,-0.011 0.101,-0.059C0.057,-0.106 0.035,-0.173 0.035,-0.259C0.035,-0.345 0.057,-0.412 0.101,-0.459C0.145,-0.506 0.204,-0.53 0.278,-0.53ZM0.278,-0.06C0.322,-0.06 0.357,-0.077 0.385,-0.11C0.412,-0.143 0.426,-0.193 0.426,-0.259C0.426,-0.325 0.412,-0.375 0.385,-0.408C0.357,-0.441 0.322,-0.458 0.278,-0.458C0.234,-0.458 0.198,-0.441 0.171,-0.408C0.144,-0.375 0.13,-0.325 0.13,-0.259C0.13,-0.193 0.144,-0.143 0.171,-0.11C0.198,-0.077 0.234,-0.06 0.278,-0.06Z" style="fill:rgb(251,251,251);fill-rule:nonzero;"/>
            </g>
            <g transform="matrix(44.3306,0,0,44.3306,3096.66,5841.25)">
                <path d="M0.396,-0.066C0.35,-0.014 0.299,0.012 0.241,0.012C0.124,0.012 0.066,-0.052 0.066,-0.179L0.066,-0.518L0.158,-0.518L0.158,-0.183C0.158,-0.141 0.166,-0.11 0.181,-0.092C0.196,-0.073 0.22,-0.064 0.255,-0.064C0.306,-0.064 0.353,-0.092 0.396,-0.147L0.396,-0.518L0.488,-0.518L0.488,-0L0.396,-0L0.396,-0.066Z" style="fill:rgb(251,251,251);fill-rule:nonzero;"/>
            </g>
            <g transform="matrix(44.3306,0,0,44.3306,3121.31,5841.25)">
                <path d="M0.269,0.001C0.249,0.005 0.227,0.007 0.203,0.007C0.165,0.007 0.138,0 0.12,-0.013C0.103,-0.027 0.092,-0.044 0.087,-0.065C0.083,-0.087 0.081,-0.115 0.081,-0.152L0.081,-0.446L0.017,-0.446L0.017,-0.518L0.081,-0.518L0.081,-0.647L0.173,-0.647L0.173,-0.518L0.257,-0.518L0.257,-0.446L0.173,-0.446L0.173,-0.147C0.173,-0.111 0.177,-0.089 0.186,-0.079C0.195,-0.07 0.208,-0.065 0.223,-0.065C0.239,-0.065 0.254,-0.066 0.269,-0.069L0.269,0.001Z" style="fill:rgb(251,251,251);fill-rule:nonzero;"/>
            </g>
            <g transform="matrix(45.3861,0,0,45.3861,3000.53,5892.31)">
                <path d="M0.642,-0L0.547,-0L0.547,-0.337L0.175,-0.337L0.175,-0L0.08,-0L0.08,-0.716L0.175,-0.716L0.175,-0.422L0.547,-0.422L0.547,-0.716L0.642,-0.716L0.642,-0Z" style="fill:rgb(251,251,251);fill-rule:nonzero;"/>
            </g>
            <g transform="matrix(45.3861,0,0,45.3861,3033.31,5892.31)">
                <path d="M0.288,0.012C0.212,0.012 0.151,-0.012 0.104,-0.059C0.058,-0.107 0.035,-0.174 0.035,-0.259C0.035,-0.343 0.058,-0.41 0.102,-0.458C0.147,-0.506 0.206,-0.53 0.278,-0.53C0.352,-0.53 0.411,-0.506 0.455,-0.459C0.499,-0.412 0.521,-0.345 0.521,-0.259L0.521,-0.237L0.131,-0.237C0.135,-0.177 0.151,-0.132 0.18,-0.104C0.21,-0.075 0.245,-0.06 0.288,-0.06C0.32,-0.06 0.349,-0.068 0.375,-0.085C0.401,-0.101 0.415,-0.125 0.416,-0.155L0.511,-0.155C0.504,-0.101 0.48,-0.06 0.439,-0.031C0.398,-0.002 0.347,0.012 0.288,0.012ZM0.424,-0.309C0.416,-0.359 0.4,-0.396 0.374,-0.421C0.347,-0.446 0.316,-0.458 0.278,-0.458C0.241,-0.458 0.209,-0.446 0.183,-0.421C0.157,-0.397 0.14,-0.359 0.133,-0.309L0.424,-0.309Z" style="fill:rgb(251,251,251);fill-rule:nonzero;"/>
            </g>
            <g transform="matrix(45.3861,0,0,45.3861,3058.55,5892.31)">
                <rect x="0.068" y="-0.716" width="0.092" height="0.716" style="fill:rgb(251,251,251);fill-rule:nonzero;"/>
            </g>
            <g transform="matrix(45.3861,0,0,45.3861,3068.9,5892.31)">
                <path d="M0.16,-0.456C0.201,-0.505 0.25,-0.53 0.308,-0.53C0.376,-0.53 0.428,-0.506 0.465,-0.458C0.502,-0.41 0.521,-0.345 0.521,-0.263C0.521,-0.178 0.5,-0.111 0.459,-0.062C0.417,-0.012 0.365,0.012 0.302,0.012C0.246,0.012 0.199,-0.005 0.16,-0.04L0.16,0.199L0.068,0.199L0.068,-0.518L0.16,-0.518L0.16,-0.456ZM0.16,-0.123C0.2,-0.081 0.245,-0.06 0.296,-0.06C0.336,-0.06 0.367,-0.077 0.391,-0.111C0.414,-0.145 0.426,-0.196 0.426,-0.263C0.426,-0.327 0.415,-0.375 0.393,-0.408C0.37,-0.441 0.34,-0.458 0.3,-0.458C0.249,-0.458 0.202,-0.428 0.16,-0.369L0.16,-0.123Z" style="fill:rgb(251,251,251);fill-rule:nonzero;"/>
            </g>
            <g transform="matrix(45.3861,0,0,45.3861,3094.14,5892.31)">
                <path d="M0.288,0.012C0.212,0.012 0.151,-0.012 0.104,-0.059C0.058,-0.107 0.035,-0.174 0.035,-0.259C0.035,-0.343 0.058,-0.41 0.102,-0.458C0.147,-0.506 0.206,-0.53 0.278,-0.53C0.352,-0.53 0.411,-0.506 0.455,-0.459C0.499,-0.412 0.521,-0.345 0.521,-0.259L0.521,-0.237L0.131,-0.237C0.135,-0.177 0.151,-0.132 0.18,-0.104C0.21,-0.075 0.245,-0.06 0.288,-0.06C0.32,-0.06 0.349,-0.068 0.375,-0.085C0.401,-0.101 0.415,-0.125 0.416,-0.155L0.511,-0.155C0.504,-0.101 0.48,-0.06 0.439,-0.031C0.398,-0.002 0.347,0.012 0.288,0.012ZM0.424,-0.309C0.416,-0.359 0.4,-0.396 0.374,-0.421C0.347,-0.446 0.316,-0.458 0.278,-0.458C0.241,-0.458 0.209,-0.446 0.183,-0.421C0.157,-0.397 0.14,-0.359 0.133,-0.309L0.424,-0.309Z" style="fill:rgb(251,251,251);fill-rule:nonzero;"/>
            </g>
            <g transform="matrix(45.3861,0,0,45.3861,3119.38,5892.31)">
                <path d="M0.337,-0.434C0.324,-0.438 0.305,-0.44 0.281,-0.44C0.234,-0.44 0.194,-0.415 0.16,-0.366L0.16,-0L0.068,-0L0.068,-0.518L0.16,-0.518L0.16,-0.446C0.199,-0.502 0.244,-0.53 0.295,-0.53C0.308,-0.53 0.322,-0.528 0.337,-0.526L0.337,-0.434Z" style="fill:rgb(251,251,251);fill-rule:nonzero;"/>
            </g>
        </g>
    </g>
    <defs>
        <linearGradient id="_Linear1" x1="0" y1="0" x2="1" y2="0" gradientUnits="userSpaceOnUse" gradientTransform="matrix(3390.53,3429.99,-3429.99,3390.53,2093.6,3649.77)"><stop offset="0" style="stop-color:rgb(94,94,94);stop-opacity:1"/><stop offset="1" style="stop-color:rgb(4,4,4);stop-opacity:1"/></linearGradient>
        <linearGradient id="_Linear2" x1="0" y1="0" x2="1" y2="0" gradientUnits="userSpaceOnUse" gradientTransform="matrix(3355.43,3353.41,-3353.41,3355.43,2116.15,3690.3)"><stop offset="0" style="stop-color:rgb(7,8,10);stop-opacity:1"/><stop offset="1" style="stop-color:rgb(91,95,98);stop-opacity:1"/></linearGradient>
        <linearGradient id="_Linear3" x1="0" y1="0" x2="1" y2="0" gradientUnits="userSpaceOnUse" gradientTransform="matrix(3383.9,3370.49,-3370.49,3383.9,2070.61,3707.38)"><stop offset="0" style="stop-color:rgb(98,98,98);stop-opacity:1"/><stop offset="0.24" style="stop-color:rgb(107,107,107);stop-opacity:1"/><stop offset="0.32" style="stop-color:rgb(128,128,128);stop-opacity:1"/><stop offset="0.4" style="stop-color:rgb(149,149,149);stop-opacity:1"/><stop offset="1" style="stop-color:rgb(105,109,112);stop-opacity:1"/></linearGradient>
    </defs>
</svg>
